<svg width="16" height="16" viewBox="0 0 16 16" fill="none" xmlns="http://www.w3.org/2000/svg">
<path d="M10.3364 1.34649H5.66377C5.44515 1.34586 5.22857 1.38845 5.02647 1.47182C4.82437 1.55519 4.64075 1.67769 4.48616 1.83228C4.33158 1.98687 4.20908 2.17049 4.12571 2.37259C4.04234 2.57469 3.99974 2.79127 4.00037 3.00989V12.9903C4.00037 13.9127 4.75646 14.6537 5.66377 14.6537H10.3364C10.555 14.6543 10.7716 14.6117 10.9737 14.5283C11.1758 14.445 11.3594 14.3225 11.514 14.1679C11.6686 14.0133 11.7911 13.8297 11.8745 13.6276C11.9578 13.4255 12.0004 13.2089 11.9998 12.9903V3.00989C12.0004 2.79127 11.9578 2.57469 11.8745 2.37259C11.7911 2.17049 11.6686 1.98687 11.514 1.83228C11.3594 1.67769 11.1758 1.55519 10.9737 1.47182C10.7716 1.38845 10.555 1.34586 10.3364 1.34649ZM8.00765 13.58C7.58424 13.58 7.25156 13.2474 7.25156 12.8239C7.25156 12.4005 7.58424 12.0679 8.00765 12.0679C8.43106 12.0679 8.76374 12.4005 8.76374 12.8239C8.76374 13.2474 8.43106 13.58 8.00765 13.58ZM11.2437 11.2664H4.75646V3.5694H11.2437V11.2664Z" fill="#343A3F" fill-opacity="0.5"/>
</svg>
